<svg id="Layer_1" data-name="Layer 1" xmlns="http://www.w3.org/2000/svg" viewBox="0 0 512.35 512.03"><defs><style>.cls-1{fill:#fff;}</style></defs><path class="cls-1" d="M447.33,65C404.31,22,343.94-1.76,281.62.1a8.54,8.54,0,1,0,.47,17.07c57.53-1.5,113.46,20.22,153.17,59.92s61.55,95.53,59.93,153.17a8.53,8.53,0,0,0,8.29,8.77h.25a8.55,8.55,0,0,0,8.53-8.29C514,168.43,490.33,108,447.33,65Z"/><path class="cls-1" d="M452.27,239h.26a8.55,8.55,0,0,0,8.53-8.28c1.47-49.1-16.73-96.31-49.94-129.53-32.49-32.48-79.33-50.52-129.4-49.93a8.54,8.54,0,0,0,.14,17.07H282c45.14-.8,87.82,15.68,117.06,44.93,29.9,29.91,46.28,72.53,44.94,117A8.54,8.54,0,0,0,452.27,239Z"/><path class="cls-1" d="M281.86,119.57c19.06,0,54.95,3.89,81,29.93s29.94,61.94,29.94,81a8.53,8.53,0,0,0,17.06,0c0-21.7-4.54-62.66-34.93-93.06s-71.36-34.94-93.07-34.94a8.54,8.54,0,0,0,0,17.07Z"/><path class="cls-1" d="M361.49,311.59a8.79,8.79,0,0,0-12.07,0l-48.61,48.62c-21.2,21.19-65.15,20-115.57-30.39s-51.59-94.37-30.4-115.57a8.53,8.53,0,0,0,0-12.06L81.92,129.25a8.53,8.53,0,1,0-12.07,12.07l67.32,67.34c-21.44,28.72-18.4,78.83,36,133.23,58.76,58.75,112.5,57.59,139.7,30.38l42.58-42.59,85.18,85.19-17.87,17.9a8.53,8.53,0,1,0,12.06,12.06l23.91-23.93a8.52,8.52,0,0,0,0-12.07Z"/><path class="cls-1" d="M337.19,384.52a8.53,8.53,0,1,0-12.07,12.07l66.77,66.77c-35.44,32.37-72.16,39.77-112.28,22.59-.59-.23-60.11-24.61-143-107.51C54.05,295.88,29.34,236,28.82,234.79,7.47,192.1,15.53,159.07,57.61,117l42.58-42.58,85.18,85.17-18.28,18.28a8.53,8.53,0,1,0,12.07,12.06l24.32-24.31a8.55,8.55,0,0,0,0-12.06L106.22,56.32a8.78,8.78,0,0,0-12.06,0L45.54,104.94c-47.71,47.7-57,87.53-32.29,136.84,1,2.55,26,63.39,111.3,148.73S270.73,500.78,273.09,501.72Q297.16,512,320.35,512c31.4,0,61.46-14.2,89.77-42.51a8.53,8.53,0,0,0,0-12.07Z"/></svg>